<svg xmlns="http://www.w3.org/2000/svg" xmlns:xlink="http://www.w3.org/1999/xlink" width="500" zoomAndPan="magnify" viewBox="0 0 375 374.999991" height="500" preserveAspectRatio="xMidYMid meet" version="1.0"><path fill="#ffffff" d="M 62.5 312.5 C 53.90625 312.5 46.550781 309.441406 40.4375 303.328125 C 34.324219 297.214844 31.261719 289.855469 31.25 281.25 L 31.25 93.75 C 31.25 85.15625 34.3125 77.800781 40.4375 71.6875 C 46.5625 65.574219 53.917969 62.511719 62.5 62.5 L 312.5 62.5 C 321.09375 62.5 328.453125 65.5625 334.578125 71.6875 C 340.703125 77.8125 343.761719 85.167969 343.75 93.75 L 343.75 281.25 C 343.75 289.84375 340.691406 297.203125 334.578125 303.328125 C 328.464844 309.453125 321.105469 312.511719 312.5 312.5 Z M 187.5 203.125 L 62.5 125 L 62.5 281.25 L 312.5 281.25 L 312.5 125 Z M 187.5 171.875 L 312.5 93.75 L 62.5 93.75 Z M 62.5 125 L 62.5 93.75 L 62.5 281.25 Z M 62.5 125 " fill-opacity="1" fill-rule="nonzero"/></svg>