<svg xmlns="http://www.w3.org/2000/svg" xmlns:xlink="http://www.w3.org/1999/xlink" width="500" zoomAndPan="magnify" viewBox="0 0 375 374.999991" height="500" preserveAspectRatio="xMidYMid meet" version="1.0"><path fill="#ffffff" d="M 121.875 31.25 L 253.125 31.25 C 303.125 31.25 343.75 71.875 343.75 121.875 L 343.75 253.125 C 343.75 254.609375 343.714844 256.089844 343.640625 257.570312 C 343.566406 259.054688 343.460938 260.53125 343.3125 262.007812 C 343.167969 263.484375 342.988281 264.957031 342.769531 266.421875 C 342.550781 267.890625 342.296875 269.351562 342.007812 270.804688 C 341.71875 272.257812 341.394531 273.707031 341.035156 275.144531 C 340.671875 276.582031 340.277344 278.011719 339.847656 279.433594 C 339.417969 280.851562 338.953125 282.257812 338.453125 283.65625 C 337.953125 285.050781 337.417969 286.433594 336.851562 287.804688 C 336.285156 289.175781 335.683594 290.53125 335.050781 291.871094 C 334.414062 293.214844 333.75 294.539062 333.050781 295.84375 C 332.351562 297.152344 331.617188 298.445312 330.855469 299.714844 C 330.09375 300.988281 329.300781 302.242188 328.476562 303.472656 C 327.652344 304.707031 326.800781 305.917969 325.914062 307.109375 C 325.03125 308.300781 324.121094 309.46875 323.179688 310.617188 C 322.238281 311.761719 321.269531 312.886719 320.273438 313.984375 C 319.277344 315.082031 318.253906 316.15625 317.207031 317.207031 C 316.15625 318.253906 315.082031 319.277344 313.984375 320.273438 C 312.886719 321.269531 311.761719 322.238281 310.617188 323.179688 C 309.46875 324.121094 308.300781 325.03125 307.109375 325.914062 C 305.917969 326.800781 304.707031 327.652344 303.472656 328.476562 C 302.242188 329.300781 300.988281 330.09375 299.714844 330.855469 C 298.445312 331.621094 297.152344 332.351562 295.84375 333.050781 C 294.539062 333.75 293.214844 334.414062 291.871094 335.050781 C 290.53125 335.683594 289.175781 336.285156 287.804688 336.851562 C 286.433594 337.417969 285.050781 337.953125 283.65625 338.453125 C 282.257812 338.953125 280.851562 339.417969 279.433594 339.847656 C 278.011719 340.277344 276.582031 340.671875 275.144531 341.035156 C 273.707031 341.394531 272.257812 341.71875 270.804688 342.007812 C 269.351562 342.296875 267.890625 342.550781 266.421875 342.769531 C 264.957031 342.988281 263.484375 343.167969 262.007812 343.3125 C 260.53125 343.460938 259.054688 343.566406 257.570312 343.640625 C 256.089844 343.714844 254.609375 343.75 253.125 343.75 L 121.875 343.75 C 71.875 343.75 31.25 303.125 31.25 253.125 L 31.25 121.875 C 31.25 120.390625 31.285156 118.910156 31.359375 117.429688 C 31.433594 115.945312 31.539062 114.46875 31.6875 112.992188 C 31.832031 111.515625 32.011719 110.042969 32.230469 108.578125 C 32.449219 107.109375 32.703125 105.648438 32.992188 104.195312 C 33.28125 102.742188 33.605469 101.292969 33.964844 99.855469 C 34.328125 98.417969 34.722656 96.988281 35.152344 95.566406 C 35.582031 94.148438 36.046875 92.742188 36.546875 91.34375 C 37.046875 89.949219 37.582031 88.566406 38.148438 87.195312 C 38.714844 85.824219 39.316406 84.46875 39.949219 83.128906 C 40.585938 81.785156 41.25 80.460938 41.949219 79.15625 C 42.648438 77.847656 43.378906 76.554688 44.144531 75.285156 C 44.90625 74.011719 45.699219 72.757812 46.523438 71.527344 C 47.347656 70.292969 48.199219 69.082031 49.085938 67.890625 C 49.96875 66.699219 50.878906 65.53125 51.820312 64.382812 C 52.761719 63.238281 53.730469 62.113281 54.726562 61.015625 C 55.722656 59.917969 56.746094 58.84375 57.792969 57.792969 C 58.84375 56.746094 59.917969 55.722656 61.015625 54.726562 C 62.113281 53.730469 63.238281 52.761719 64.382812 51.820312 C 65.53125 50.878906 66.699219 49.96875 67.890625 49.085938 C 69.082031 48.199219 70.292969 47.347656 71.527344 46.523438 C 72.757812 45.699219 74.011719 44.90625 75.285156 44.144531 C 76.554688 43.378906 77.847656 42.648438 79.15625 41.949219 C 80.460938 41.25 81.785156 40.585938 83.128906 39.949219 C 84.46875 39.316406 85.824219 38.714844 87.195312 38.148438 C 88.566406 37.582031 89.949219 37.046875 91.34375 36.546875 C 92.742188 36.046875 94.148438 35.582031 95.566406 35.152344 C 96.988281 34.722656 98.417969 34.328125 99.855469 33.964844 C 101.292969 33.605469 102.742188 33.28125 104.195312 32.992188 C 105.648438 32.703125 107.109375 32.449219 108.578125 32.230469 C 110.042969 32.011719 111.515625 31.832031 112.992188 31.6875 C 114.46875 31.539062 115.945312 31.433594 117.429688 31.359375 C 118.910156 31.285156 120.390625 31.25 121.875 31.25 M 118.75 62.5 C 116.90625 62.5 115.070312 62.589844 113.238281 62.769531 C 111.402344 62.953125 109.582031 63.222656 107.777344 63.582031 C 105.96875 63.941406 104.183594 64.386719 102.421875 64.921875 C 100.660156 65.457031 98.925781 66.078125 97.222656 66.78125 C 95.523438 67.488281 93.859375 68.273438 92.234375 69.140625 C 90.609375 70.011719 89.03125 70.957031 87.5 71.980469 C 85.96875 73.003906 84.488281 74.097656 83.066406 75.269531 C 81.640625 76.4375 80.277344 77.671875 78.976562 78.976562 C 77.671875 80.277344 76.4375 81.640625 75.269531 83.066406 C 74.097656 84.488281 73.003906 85.96875 71.980469 87.5 C 70.957031 89.03125 70.011719 90.609375 69.140625 92.234375 C 68.273438 93.859375 67.488281 95.523438 66.78125 97.222656 C 66.078125 98.925781 65.457031 100.660156 64.921875 102.421875 C 64.386719 104.183594 63.941406 105.96875 63.582031 107.777344 C 63.222656 109.582031 62.953125 111.402344 62.769531 113.238281 C 62.589844 115.070312 62.5 116.90625 62.5 118.75 L 62.5 256.25 C 62.5 287.34375 87.65625 312.5 118.75 312.5 L 256.25 312.5 C 258.09375 312.5 259.929688 312.410156 261.761719 312.230469 C 263.597656 312.046875 265.417969 311.777344 267.222656 311.417969 C 269.03125 311.058594 270.816406 310.613281 272.578125 310.078125 C 274.339844 309.542969 276.074219 308.921875 277.777344 308.21875 C 279.476562 307.511719 281.140625 306.726562 282.765625 305.859375 C 284.390625 304.988281 285.96875 304.042969 287.5 303.019531 C 289.03125 301.996094 290.511719 300.902344 291.933594 299.730469 C 293.359375 298.5625 294.722656 297.328125 296.023438 296.023438 C 297.328125 294.722656 298.5625 293.359375 299.730469 291.933594 C 300.902344 290.511719 301.996094 289.03125 303.019531 287.5 C 304.042969 285.96875 304.988281 284.390625 305.859375 282.765625 C 306.726562 281.140625 307.511719 279.476562 308.21875 277.777344 C 308.921875 276.074219 309.542969 274.339844 310.078125 272.578125 C 310.613281 270.816406 311.058594 269.03125 311.417969 267.222656 C 311.777344 265.417969 312.046875 263.597656 312.230469 261.761719 C 312.410156 259.929688 312.5 258.09375 312.5 256.25 L 312.5 118.75 C 312.5 87.65625 287.34375 62.5 256.25 62.5 Z M 269.53125 85.9375 C 270.171875 85.9375 270.808594 85.96875 271.445312 86.03125 C 272.082031 86.09375 272.714844 86.1875 273.339844 86.3125 C 273.96875 86.4375 274.589844 86.59375 275.199219 86.777344 C 275.8125 86.964844 276.414062 87.179688 277.003906 87.425781 C 277.597656 87.667969 278.175781 87.941406 278.738281 88.242188 C 279.300781 88.546875 279.851562 88.875 280.382812 89.230469 C 280.914062 89.585938 281.425781 89.964844 281.921875 90.371094 C 282.417969 90.777344 282.890625 91.207031 283.34375 91.65625 C 283.792969 92.109375 284.222656 92.582031 284.628906 93.078125 C 285.035156 93.574219 285.414062 94.085938 285.769531 94.617188 C 286.125 95.148438 286.453125 95.699219 286.757812 96.261719 C 287.058594 96.824219 287.332031 97.402344 287.574219 97.996094 C 287.820312 98.585938 288.035156 99.1875 288.222656 99.800781 C 288.40625 100.410156 288.5625 101.03125 288.6875 101.660156 C 288.8125 102.285156 288.90625 102.917969 288.96875 103.554688 C 289.03125 104.191406 289.0625 104.828125 289.0625 105.46875 C 289.0625 106.109375 289.03125 106.746094 288.96875 107.382812 C 288.90625 108.019531 288.8125 108.652344 288.6875 109.277344 C 288.5625 109.90625 288.40625 110.527344 288.222656 111.136719 C 288.035156 111.75 287.820312 112.351562 287.574219 112.941406 C 287.332031 113.535156 287.058594 114.113281 286.757812 114.675781 C 286.453125 115.238281 286.125 115.789062 285.769531 116.320312 C 285.414062 116.851562 285.035156 117.363281 284.628906 117.859375 C 284.222656 118.355469 283.792969 118.828125 283.34375 119.28125 C 282.890625 119.730469 282.417969 120.160156 281.921875 120.566406 C 281.425781 120.972656 280.914062 121.351562 280.382812 121.707031 C 279.851562 122.0625 279.300781 122.390625 278.738281 122.695312 C 278.175781 122.996094 277.597656 123.269531 277.003906 123.511719 C 276.414062 123.757812 275.8125 123.972656 275.199219 124.160156 C 274.589844 124.34375 273.96875 124.5 273.339844 124.625 C 272.714844 124.75 272.082031 124.84375 271.445312 124.90625 C 270.808594 124.96875 270.171875 125 269.53125 125 C 268.890625 125 268.253906 124.96875 267.617188 124.90625 C 266.980469 124.84375 266.347656 124.75 265.722656 124.625 C 265.09375 124.5 264.472656 124.34375 263.863281 124.160156 C 263.25 123.972656 262.648438 123.757812 262.058594 123.511719 C 261.464844 123.269531 260.886719 122.996094 260.324219 122.695312 C 259.761719 122.390625 259.210938 122.0625 258.679688 121.707031 C 258.148438 121.351562 257.636719 120.972656 257.140625 120.566406 C 256.644531 120.160156 256.171875 119.730469 255.71875 119.28125 C 255.269531 118.828125 254.839844 118.355469 254.433594 117.859375 C 254.027344 117.363281 253.648438 116.851562 253.292969 116.320312 C 252.9375 115.789062 252.609375 115.238281 252.304688 114.675781 C 252.003906 114.113281 251.730469 113.535156 251.488281 112.941406 C 251.242188 112.351562 251.027344 111.75 250.839844 111.136719 C 250.65625 110.527344 250.5 109.90625 250.375 109.277344 C 250.25 108.652344 250.15625 108.019531 250.09375 107.382812 C 250.03125 106.746094 250 106.109375 250 105.46875 C 250 104.828125 250.03125 104.191406 250.09375 103.554688 C 250.15625 102.917969 250.25 102.285156 250.375 101.660156 C 250.5 101.03125 250.65625 100.410156 250.839844 99.800781 C 251.027344 99.1875 251.242188 98.585938 251.488281 97.996094 C 251.730469 97.402344 252.003906 96.824219 252.304688 96.261719 C 252.609375 95.699219 252.9375 95.148438 253.292969 94.617188 C 253.648438 94.085938 254.027344 93.574219 254.433594 93.078125 C 254.839844 92.582031 255.269531 92.109375 255.71875 91.65625 C 256.171875 91.207031 256.644531 90.777344 257.140625 90.371094 C 257.636719 89.964844 258.148438 89.585938 258.679688 89.230469 C 259.210938 88.875 259.761719 88.546875 260.324219 88.242188 C 260.886719 87.941406 261.464844 87.667969 262.058594 87.425781 C 262.648438 87.179688 263.25 86.964844 263.863281 86.777344 C 264.472656 86.59375 265.09375 86.4375 265.722656 86.3125 C 266.347656 86.1875 266.980469 86.09375 267.617188 86.03125 C 268.253906 85.96875 268.890625 85.9375 269.53125 85.9375 M 187.5 109.375 C 188.777344 109.375 190.054688 109.40625 191.332031 109.46875 C 192.609375 109.53125 193.886719 109.625 195.15625 109.75 C 196.429688 109.875 197.699219 110.03125 198.964844 110.21875 C 200.226562 110.40625 201.488281 110.625 202.742188 110.875 C 203.996094 111.125 205.242188 111.40625 206.484375 111.714844 C 207.722656 112.027344 208.953125 112.367188 210.179688 112.738281 C 211.402344 113.109375 212.617188 113.511719 213.820312 113.941406 C 215.023438 114.371094 216.214844 114.832031 217.398438 115.320312 C 218.578125 115.8125 219.746094 116.328125 220.902344 116.875 C 222.058594 117.421875 223.199219 117.996094 224.328125 118.601562 C 225.457031 119.203125 226.566406 119.832031 227.664062 120.488281 C 228.761719 121.148438 229.839844 121.832031 230.902344 122.542969 C 231.96875 123.25 233.011719 123.988281 234.039062 124.75 C 235.066406 125.511719 236.074219 126.296875 237.0625 127.109375 C 238.050781 127.917969 239.019531 128.753906 239.964844 129.613281 C 240.914062 130.472656 241.839844 131.351562 242.742188 132.257812 C 243.648438 133.160156 244.527344 134.085938 245.386719 135.035156 C 246.246094 135.980469 247.082031 136.949219 247.890625 137.9375 C 248.703125 138.925781 249.488281 139.933594 250.25 140.960938 C 251.011719 141.988281 251.75 143.03125 252.457031 144.097656 C 253.167969 145.160156 253.851562 146.238281 254.511719 147.335938 C 255.167969 148.433594 255.796875 149.542969 256.398438 150.671875 C 257.003906 151.800781 257.578125 152.941406 258.125 154.097656 C 258.671875 155.253906 259.1875 156.421875 259.679688 157.601562 C 260.167969 158.785156 260.628906 159.976562 261.058594 161.179688 C 261.488281 162.382812 261.890625 163.597656 262.261719 164.820312 C 262.632812 166.046875 262.972656 167.277344 263.285156 168.515625 C 263.59375 169.757812 263.875 171.003906 264.125 172.257812 C 264.375 173.511719 264.589844 174.773438 264.78125 176.035156 C 264.96875 177.300781 265.125 178.570312 265.25 179.84375 C 265.375 181.113281 265.46875 182.390625 265.53125 183.667969 C 265.59375 184.945312 265.625 186.222656 265.625 187.5 C 265.625 188.777344 265.59375 190.054688 265.53125 191.332031 C 265.46875 192.609375 265.375 193.886719 265.25 195.15625 C 265.125 196.429688 264.96875 197.699219 264.78125 198.964844 C 264.589844 200.226562 264.375 201.488281 264.125 202.742188 C 263.875 203.996094 263.59375 205.242188 263.285156 206.484375 C 262.972656 207.722656 262.632812 208.953125 262.261719 210.179688 C 261.890625 211.402344 261.488281 212.617188 261.058594 213.820312 C 260.628906 215.023438 260.167969 216.214844 259.679688 217.398438 C 259.1875 218.578125 258.671875 219.746094 258.125 220.902344 C 257.578125 222.058594 257.003906 223.199219 256.398438 224.328125 C 255.796875 225.457031 255.167969 226.566406 254.511719 227.664062 C 253.851562 228.761719 253.167969 229.839844 252.457031 230.902344 C 251.75 231.96875 251.011719 233.011719 250.25 234.039062 C 249.488281 235.066406 248.703125 236.074219 247.890625 237.0625 C 247.082031 238.050781 246.246094 239.019531 245.386719 239.964844 C 244.527344 240.914062 243.648438 241.839844 242.742188 242.742188 C 241.839844 243.648438 240.914062 244.527344 239.964844 245.386719 C 239.019531 246.246094 238.050781 247.082031 237.0625 247.890625 C 236.074219 248.703125 235.066406 249.488281 234.039062 250.25 C 233.011719 251.011719 231.96875 251.75 230.902344 252.457031 C 229.839844 253.167969 228.761719 253.851562 227.664062 254.511719 C 226.566406 255.167969 225.457031 255.796875 224.328125 256.398438 C 223.199219 257.003906 222.058594 257.578125 220.902344 258.125 C 219.746094 258.671875 218.578125 259.1875 217.398438 259.679688 C 216.214844 260.167969 215.023438 260.628906 213.820312 261.058594 C 212.617188 261.488281 211.402344 261.890625 210.179688 262.261719 C 208.953125 262.632812 207.722656 262.972656 206.484375 263.285156 C 205.242188 263.59375 203.996094 263.875 202.742188 264.125 C 201.488281 264.375 200.226562 264.589844 198.964844 264.78125 C 197.699219 264.96875 196.429688 265.125 195.15625 265.25 C 193.886719 265.375 192.609375 265.46875 191.332031 265.53125 C 190.054688 265.59375 188.777344 265.625 187.5 265.625 C 186.222656 265.625 184.945312 265.59375 183.667969 265.53125 C 182.390625 265.46875 181.113281 265.375 179.84375 265.25 C 178.570312 265.125 177.300781 264.96875 176.035156 264.78125 C 174.773438 264.589844 173.511719 264.375 172.257812 264.125 C 171.003906 263.875 169.757812 263.59375 168.515625 263.285156 C 167.277344 262.972656 166.046875 262.632812 164.820312 262.261719 C 163.597656 261.890625 162.382812 261.488281 161.179688 261.058594 C 159.976562 260.628906 158.785156 260.167969 157.601562 259.679688 C 156.421875 259.1875 155.253906 258.671875 154.097656 258.125 C 152.941406 257.578125 151.800781 257.003906 150.671875 256.398438 C 149.542969 255.796875 148.433594 255.167969 147.335938 254.511719 C 146.238281 253.851562 145.160156 253.167969 144.097656 252.457031 C 143.03125 251.75 141.988281 251.011719 140.960938 250.25 C 139.933594 249.488281 138.925781 248.703125 137.9375 247.890625 C 136.949219 247.082031 135.980469 246.246094 135.035156 245.386719 C 134.085938 244.527344 133.160156 243.648438 132.257812 242.742188 C 131.351562 241.839844 130.472656 240.914062 129.613281 239.964844 C 128.753906 239.019531 127.917969 238.050781 127.109375 237.0625 C 126.296875 236.074219 125.511719 235.066406 124.75 234.039062 C 123.988281 233.011719 123.25 231.96875 122.542969 230.902344 C 121.832031 229.839844 121.148438 228.761719 120.488281 227.664062 C 119.832031 226.566406 119.203125 225.457031 118.601562 224.328125 C 117.996094 223.199219 117.421875 222.058594 116.875 220.902344 C 116.328125 219.746094 115.8125 218.578125 115.320312 217.398438 C 114.832031 216.214844 114.371094 215.023438 113.941406 213.820312 C 113.511719 212.617188 113.109375 211.402344 112.738281 210.179688 C 112.367188 208.953125 112.027344 207.722656 111.714844 206.484375 C 111.40625 205.242188 111.125 203.996094 110.875 202.742188 C 110.625 201.488281 110.40625 200.226562 110.21875 198.964844 C 110.03125 197.699219 109.875 196.429688 109.75 195.15625 C 109.625 193.886719 109.53125 192.609375 109.46875 191.332031 C 109.40625 190.054688 109.375 188.777344 109.375 187.5 C 109.375 186.222656 109.40625 184.945312 109.46875 183.667969 C 109.53125 182.390625 109.625 181.113281 109.75 179.84375 C 109.875 178.570312 110.03125 177.300781 110.21875 176.035156 C 110.40625 174.773438 110.625 173.511719 110.875 172.257812 C 111.125 171.003906 111.40625 169.757812 111.714844 168.515625 C 112.027344 167.277344 112.367188 166.046875 112.738281 164.820312 C 113.109375 163.597656 113.511719 162.382812 113.941406 161.179688 C 114.371094 159.976562 114.832031 158.785156 115.320312 157.601562 C 115.8125 156.421875 116.328125 155.253906 116.875 154.097656 C 117.421875 152.941406 117.996094 151.800781 118.601562 150.671875 C 119.203125 149.542969 119.832031 148.433594 120.488281 147.335938 C 121.148438 146.238281 121.832031 145.160156 122.542969 144.097656 C 123.25 143.03125 123.988281 141.988281 124.75 140.960938 C 125.511719 139.933594 126.296875 138.925781 127.109375 137.9375 C 127.917969 136.949219 128.753906 135.980469 129.613281 135.035156 C 130.472656 134.085938 131.351562 133.160156 132.257812 132.257812 C 133.160156 131.351562 134.085938 130.472656 135.035156 129.613281 C 135.980469 128.753906 136.949219 127.917969 137.9375 127.109375 C 138.925781 126.296875 139.933594 125.511719 140.960938 124.75 C 141.988281 123.988281 143.03125 123.25 144.097656 122.542969 C 145.160156 121.832031 146.238281 121.148438 147.335938 120.488281 C 148.433594 119.832031 149.542969 119.203125 150.671875 118.601562 C 151.800781 117.996094 152.941406 117.421875 154.097656 116.875 C 155.253906 116.328125 156.421875 115.8125 157.601562 115.320312 C 158.785156 114.832031 159.976562 114.371094 161.179688 113.941406 C 162.382812 113.511719 163.597656 113.109375 164.820312 112.738281 C 166.046875 112.367188 167.277344 112.027344 168.515625 111.714844 C 169.757812 111.40625 171.003906 111.125 172.257812 110.875 C 173.511719 110.625 174.773438 110.40625 176.035156 110.21875 C 177.300781 110.03125 178.570312 109.875 179.84375 109.75 C 181.113281 109.625 182.390625 109.53125 183.667969 109.46875 C 184.945312 109.40625 186.222656 109.375 187.5 109.375 M 187.5 140.625 C 185.964844 140.625 184.433594 140.699219 182.90625 140.851562 C 181.378906 141 179.859375 141.226562 178.355469 141.527344 C 176.847656 141.824219 175.363281 142.199219 173.894531 142.644531 C 172.421875 143.089844 170.980469 143.605469 169.5625 144.191406 C 168.144531 144.78125 166.757812 145.4375 165.402344 146.160156 C 164.050781 146.882812 162.734375 147.671875 161.457031 148.523438 C 160.179688 149.378906 158.949219 150.292969 157.761719 151.265625 C 156.574219 152.238281 155.441406 153.269531 154.355469 154.355469 C 153.269531 155.441406 152.238281 156.574219 151.265625 157.761719 C 150.292969 158.949219 149.378906 160.179688 148.523438 161.457031 C 147.671875 162.734375 146.882812 164.050781 146.160156 165.402344 C 145.4375 166.757812 144.78125 168.144531 144.191406 169.5625 C 143.605469 170.980469 143.089844 172.421875 142.644531 173.894531 C 142.199219 175.363281 141.824219 176.847656 141.527344 178.355469 C 141.226562 179.859375 141 181.378906 140.851562 182.90625 C 140.699219 184.433594 140.625 185.964844 140.625 187.5 C 140.625 189.035156 140.699219 190.566406 140.851562 192.09375 C 141 193.621094 141.226562 195.140625 141.527344 196.644531 C 141.824219 198.152344 142.199219 199.636719 142.644531 201.105469 C 143.089844 202.578125 143.605469 204.019531 144.191406 205.4375 C 144.78125 206.855469 145.4375 208.242188 146.160156 209.597656 C 146.882812 210.949219 147.671875 212.265625 148.523438 213.542969 C 149.378906 214.820312 150.292969 216.050781 151.265625 217.238281 C 152.238281 218.425781 153.269531 219.558594 154.355469 220.644531 C 155.441406 221.730469 156.574219 222.761719 157.761719 223.734375 C 158.949219 224.707031 160.179688 225.621094 161.457031 226.476562 C 162.734375 227.328125 164.050781 228.117188 165.402344 228.839844 C 166.757812 229.5625 168.144531 230.21875 169.5625 230.808594 C 170.980469 231.394531 172.421875 231.910156 173.894531 232.355469 C 175.363281 232.800781 176.847656 233.175781 178.355469 233.472656 C 179.859375 233.773438 181.378906 234 182.90625 234.148438 C 184.433594 234.300781 185.964844 234.375 187.5 234.375 C 189.035156 234.375 190.566406 234.300781 192.09375 234.148438 C 193.621094 234 195.140625 233.773438 196.644531 233.472656 C 198.152344 233.175781 199.636719 232.800781 201.105469 232.355469 C 202.578125 231.910156 204.019531 231.394531 205.4375 230.808594 C 206.855469 230.21875 208.242188 229.5625 209.597656 228.839844 C 210.949219 228.117188 212.265625 227.328125 213.542969 226.476562 C 214.820312 225.621094 216.050781 224.707031 217.238281 223.734375 C 218.425781 222.761719 219.558594 221.730469 220.644531 220.644531 C 221.730469 219.558594 222.761719 218.425781 223.734375 217.238281 C 224.707031 216.050781 225.621094 214.820312 226.476562 213.542969 C 227.328125 212.265625 228.117188 210.949219 228.839844 209.597656 C 229.5625 208.242188 230.21875 206.855469 230.808594 205.4375 C 231.394531 204.019531 231.910156 202.578125 232.355469 201.105469 C 232.800781 199.636719 233.175781 198.152344 233.472656 196.644531 C 233.773438 195.140625 234 193.621094 234.148438 192.09375 C 234.300781 190.566406 234.375 189.035156 234.375 187.5 C 234.375 185.964844 234.300781 184.433594 234.148438 182.90625 C 234 181.378906 233.773438 179.859375 233.472656 178.355469 C 233.175781 176.847656 232.800781 175.363281 232.355469 173.894531 C 231.910156 172.421875 231.394531 170.980469 230.808594 169.5625 C 230.21875 168.144531 229.5625 166.757812 228.839844 165.402344 C 228.117188 164.050781 227.328125 162.734375 226.476562 161.457031 C 225.621094 160.179688 224.707031 158.949219 223.734375 157.761719 C 222.761719 156.574219 221.730469 155.441406 220.644531 154.355469 C 219.558594 153.269531 218.425781 152.238281 217.238281 151.265625 C 216.050781 150.292969 214.820312 149.378906 213.542969 148.523438 C 212.265625 147.671875 210.949219 146.882812 209.597656 146.160156 C 208.242188 145.4375 206.855469 144.78125 205.4375 144.191406 C 204.019531 143.605469 202.578125 143.089844 201.105469 142.644531 C 199.636719 142.199219 198.152344 141.824219 196.644531 141.527344 C 195.140625 141.226562 193.621094 141 192.09375 140.851562 C 190.566406 140.699219 189.035156 140.625 187.5 140.625 " fill-opacity="1" fill-rule="nonzero"/></svg>