<svg xmlns="http://www.w3.org/2000/svg" xmlns:xlink="http://www.w3.org/1999/xlink" width="500" zoomAndPan="magnify" viewBox="0 0 375 374.999991" height="500" preserveAspectRatio="xMidYMid meet" version="1.0"><path fill="#000000" d="M 62.5 281.25 C 58.074219 281.25 54.363281 279.75 51.375 276.75 C 48.386719 273.75 46.886719 270.042969 46.875 265.625 C 46.863281 261.207031 48.363281 257.5 51.375 254.5 C 54.386719 251.5 58.09375 250 62.5 250 L 312.5 250 C 316.925781 250 320.640625 251.5 323.640625 254.5 C 326.640625 257.5 328.136719 261.207031 328.125 265.625 C 328.113281 270.042969 326.613281 273.753906 323.625 276.765625 C 320.636719 279.777344 316.925781 281.269531 312.5 281.25 Z M 62.5 203.125 C 58.074219 203.125 54.363281 201.625 51.375 198.625 C 48.386719 195.625 46.886719 191.917969 46.875 187.5 C 46.863281 183.082031 48.363281 179.375 51.375 176.375 C 54.386719 173.375 58.09375 171.875 62.5 171.875 L 312.5 171.875 C 316.925781 171.875 320.640625 173.375 323.640625 176.375 C 326.640625 179.375 328.136719 183.082031 328.125 187.5 C 328.113281 191.917969 326.613281 195.628906 323.625 198.640625 C 320.636719 201.652344 316.925781 203.144531 312.5 203.125 Z M 62.5 125 C 58.074219 125 54.363281 123.5 51.375 120.5 C 48.386719 117.5 46.886719 113.792969 46.875 109.375 C 46.863281 104.957031 48.363281 101.25 51.375 98.25 C 54.386719 95.25 58.09375 93.75 62.5 93.75 L 312.5 93.75 C 316.925781 93.75 320.640625 95.25 323.640625 98.25 C 326.640625 101.25 328.136719 104.957031 328.125 109.375 C 328.113281 113.792969 326.613281 117.503906 323.625 120.515625 C 320.636719 123.527344 316.925781 125.019531 312.5 125 Z M 62.5 125 " fill-opacity="1" fill-rule="nonzero"/></svg>