<svg xmlns="http://www.w3.org/2000/svg" xmlns:xlink="http://www.w3.org/1999/xlink" width="500" zoomAndPan="magnify" viewBox="0 0 375 149.999998" height="200" preserveAspectRatio="xMidYMid meet" version="1.0"><defs><g/></defs><g fill="#f9a21e" fill-opacity="1"><g transform="translate(179.096846, 113.312607)"><g><path d="M 127.515625 -72.28125 L 127.515625 -71.53125 L 123.890625 -71.53125 C 123.992188 -71.03125 124.046875 -70.523438 124.046875 -70.015625 C 124.046875 -69.515625 124.046875 -69.015625 124.046875 -68.515625 L 97.640625 -68.515625 C 97.640625 -67.203125 96.984375 -66.195312 95.671875 -65.5 C 95.066406 -65.289062 94.613281 -65.1875 94.3125 -65.1875 L 63.53125 -65.1875 C 63.125 -65.1875 62.71875 -65.210938 62.3125 -65.265625 C 61.914062 -65.316406 61.515625 -65.394531 61.109375 -65.5 L 36.515625 -65.5 L 36.515625 -64.734375 L 49.796875 -64.734375 C 49.691406 -64.234375 49.640625 -63.726562 49.640625 -63.21875 C 49.640625 -62.71875 49.640625 -62.21875 49.640625 -61.71875 L 44.359375 -61.71875 C 44.265625 -61.519531 44.21875 -61.269531 44.21875 -60.96875 C 44.21875 -60.664062 44.21875 -60.414062 44.21875 -60.21875 L 44.671875 -60.21875 L 44.671875 -58.703125 L 42.40625 -58.703125 L 42.40625 -55.6875 L 49.640625 -55.6875 L 49.640625 -54.9375 L 25.203125 -54.9375 L 25.203125 -53.421875 L 32.890625 -53.421875 L 32.890625 -50.40625 L 48.4375 -50.40625 L 48.4375 -49.640625 L 42.109375 -49.640625 L 42.109375 -48.890625 L 38.03125 -48.890625 L 38.03125 -45.875 L 49.640625 -45.875 C 49.742188 -45.46875 49.796875 -45.085938 49.796875 -44.734375 C 49.796875 -44.390625 49.796875 -44.015625 49.796875 -43.609375 L 54.03125 -43.609375 L 54.03125 -42.859375 L 34.5625 -42.859375 L 34.5625 -41.34375 L 30.1875 -41.34375 L 30.1875 -40.59375 L 49.796875 -40.59375 L 49.796875 -40.4375 L 79.984375 -40.4375 C 81.890625 -40.4375 82.992188 -39.484375 83.296875 -37.578125 L 105.640625 -37.578125 L 105.640625 -35.3125 L 104.578125 -35.3125 L 104.28125 -32.296875 L 102.609375 -32.296875 L 102.46875 -30.78125 L 106.390625 -30.78125 C 106.390625 -30.476562 106.335938 -30.226562 106.234375 -30.03125 L 105.328125 -30.03125 C 105.234375 -29.832031 105.1875 -29.582031 105.1875 -29.28125 L 110.15625 -29.28125 L 109.703125 -27.015625 L 105.03125 -27.015625 C 105.03125 -26.910156 105.003906 -26.804688 104.953125 -26.703125 C 104.898438 -26.609375 104.875 -26.457031 104.875 -26.25 L 103.671875 -26.25 C 103.566406 -25.851562 103.4375 -25.476562 103.28125 -25.125 C 103.132812 -24.769531 103.015625 -24.394531 102.921875 -24 L 104.734375 -24 C 104.734375 -23.894531 104.628906 -23.640625 104.421875 -23.234375 L 101.40625 -23.234375 C 101.207031 -22.734375 100.984375 -22.226562 100.734375 -21.71875 C 100.484375 -21.21875 100.207031 -20.71875 99.90625 -20.21875 L 102.921875 -20.21875 L 101.5625 -17.953125 L 102.921875 -17.953125 L 101.40625 -15.6875 L 100.5 -15.6875 C 100.101562 -15.1875 99.675781 -14.6875 99.21875 -14.1875 C 98.769531 -13.6875 98.289062 -13.179688 97.78125 -12.671875 L 96.578125 -12.671875 C 96.472656 -12.578125 96.367188 -12.476562 96.265625 -12.375 C 96.171875 -12.269531 96.023438 -12.117188 95.828125 -11.921875 L 89.34375 -11.921875 L 88.578125 -11.171875 L 118.921875 -11.171875 C 118.316406 -10.660156 117.710938 -10.15625 117.109375 -9.65625 C 116.503906 -9.15625 115.847656 -8.65625 115.140625 -8.15625 L 113.484375 -8.15625 C 112.472656 -7.445312 111.265625 -6.691406 109.859375 -5.890625 L 78.015625 -5.890625 C 77.015625 -5.285156 75.957031 -4.753906 74.84375 -4.296875 C 73.738281 -3.847656 72.632812 -3.375 71.53125 -2.875 L 96.421875 -2.875 C 96.117188 -2.769531 95.789062 -2.664062 95.4375 -2.5625 C 95.09375 -2.46875 94.71875 -2.316406 94.3125 -2.109375 L 88.28125 -2.109375 C 87.875 -2.015625 87.46875 -1.914062 87.0625 -1.8125 C 86.664062 -1.707031 86.265625 -1.554688 85.859375 -1.359375 L 75 -1.359375 C 71.375 -0.347656 67.648438 0.40625 63.828125 0.90625 L 66.25 0.90625 C 64.632812 1.101562 62.972656 1.253906 61.265625 1.359375 C 59.554688 1.460938 57.847656 1.515625 56.140625 1.515625 C 54.222656 1.515625 52.382812 1.460938 50.625 1.359375 C 48.863281 1.253906 47.128906 1.101562 45.421875 0.90625 L 43.015625 0.90625 C 38.984375 0.40625 35.257812 -0.347656 31.84375 -1.359375 L 42.703125 -1.359375 C 42.304688 -1.554688 41.929688 -1.707031 41.578125 -1.8125 C 41.222656 -1.914062 40.84375 -2.015625 40.4375 -2.109375 L 46.625 -2.109375 L 44.515625 -2.875 L 19.625 -2.875 C 18.613281 -3.375 17.578125 -3.847656 16.515625 -4.296875 C 15.460938 -4.753906 14.4375 -5.285156 13.4375 -5.890625 L 45.421875 -5.890625 C 44.816406 -6.285156 44.210938 -6.660156 43.609375 -7.015625 C 43.003906 -7.367188 42.453125 -7.75 41.953125 -8.15625 L 43.609375 -8.15625 C 42.398438 -9.050781 41.242188 -10.054688 40.140625 -11.171875 L 9.65625 -11.171875 C 9.550781 -11.367188 9.445312 -11.515625 9.34375 -11.609375 C 9.25 -11.710938 9.101562 -11.816406 8.90625 -11.921875 L 15.546875 -11.921875 C 15.441406 -12.117188 15.3125 -12.269531 15.15625 -12.375 C 15.007812 -12.476562 14.882812 -12.578125 14.78125 -12.671875 L 16 -12.671875 C 15.09375 -13.679688 14.238281 -14.6875 13.4375 -15.6875 L 14.34375 -15.6875 L 12.984375 -17.953125 L 11.625 -17.953125 L 10.265625 -20.21875 L 7.25 -20.21875 L 5.890625 -23.234375 L 9.046875 -23.234375 L 8.75 -24 L 6.796875 -24 C 6.691406 -24.394531 6.585938 -24.769531 6.484375 -25.125 C 6.390625 -25.476562 6.238281 -25.851562 6.03125 -26.25 L 7.25 -26.25 L 6.9375 -27.015625 L 11.625 -27.015625 C 11.519531 -27.410156 11.414062 -27.785156 11.3125 -28.140625 C 11.21875 -28.492188 11.117188 -28.875 11.015625 -29.28125 L 8.609375 -29.28125 C 8.503906 -29.476562 8.453125 -29.726562 8.453125 -30.03125 L 5.890625 -30.03125 C 5.785156 -30.226562 5.734375 -30.476562 5.734375 -30.78125 L 5.890625 -30.78125 C 5.890625 -31.1875 5.785156 -31.691406 5.578125 -32.296875 L -3.015625 -32.296875 L -3.46875 -35.3125 L 8.15625 -35.3125 C 8.050781 -35.71875 8 -36.09375 8 -36.4375 C 8 -36.789062 7.945312 -37.171875 7.84375 -37.578125 L 10.71875 -37.578125 C 10.71875 -37.878906 10.71875 -38.179688 10.71875 -38.484375 C 10.71875 -38.785156 10.664062 -39.085938 10.5625 -39.390625 L 10.5625 -40.59375 L -9.046875 -40.59375 L -9.046875 -41.34375 L -4.671875 -41.34375 L -4.671875 -42.859375 L 14.78125 -42.859375 L 14.78125 -43.609375 L 10.5625 -43.609375 C 10.5625 -44.015625 10.535156 -44.390625 10.484375 -44.734375 C 10.429688 -45.085938 10.40625 -45.46875 10.40625 -45.875 L -1.203125 -45.875 L -1.203125 -48.890625 L 2.875 -48.890625 L 2.875 -49.640625 L 9.203125 -49.640625 L 9.203125 -50.40625 L -6.34375 -50.40625 L -6.34375 -53.421875 L -14.03125 -53.421875 L -14.03125 -54.9375 L 10.40625 -54.9375 L 10.40625 -55.6875 L 3.171875 -55.6875 L 3.171875 -58.703125 L 5.4375 -58.703125 L 5.4375 -60.21875 L 4.984375 -60.21875 L 4.984375 -61.71875 L 10.40625 -61.71875 L 10.40625 -64.734375 L -2.71875 -64.734375 L -2.71875 -65.5 L 26.25 -65.5 L 26.25 -66.25 C 26.351562 -66.644531 26.40625 -67.019531 26.40625 -67.375 C 26.40625 -67.726562 26.40625 -68.109375 26.40625 -68.515625 L 18.40625 -68.515625 C 18.40625 -69.015625 18.429688 -69.515625 18.484375 -70.015625 C 18.535156 -70.523438 18.613281 -71.03125 18.71875 -71.53125 L 23.546875 -71.53125 C 23.640625 -71.726562 23.6875 -71.976562 23.6875 -72.28125 L -7.546875 -72.28125 C -7.441406 -72.488281 -7.390625 -72.738281 -7.390625 -73.03125 C -7.390625 -73.332031 -7.34375 -73.585938 -7.25 -73.796875 L 20.21875 -73.796875 L 20.96875 -76.8125 L 14.78125 -76.8125 L 15.234375 -78.328125 L 5.125 -78.328125 L 5.4375 -79.078125 L 8.75 -79.078125 C 8.851562 -79.273438 8.953125 -79.523438 9.046875 -79.828125 C 9.148438 -80.128906 9.253906 -80.378906 9.359375 -80.578125 L 7.703125 -80.578125 L 8.296875 -82.09375 L 9.046875 -82.09375 C 9.253906 -82.5 9.457031 -82.875 9.65625 -83.21875 C 9.851562 -83.570312 10.003906 -83.953125 10.109375 -84.359375 L 10.265625 -84.359375 L 11.625 -86.625 L 11.171875 -86.625 C 11.367188 -87.019531 11.59375 -87.394531 11.84375 -87.75 C 12.09375 -88.101562 12.367188 -88.484375 12.671875 -88.890625 L 11.46875 -88.890625 C 11.875 -89.390625 12.273438 -89.914062 12.671875 -90.46875 C 13.078125 -91.019531 13.484375 -91.5 13.890625 -91.90625 L 12.53125 -91.90625 C 12.625 -92.101562 12.722656 -92.25 12.828125 -92.34375 C 12.929688 -92.445312 13.03125 -92.550781 13.125 -92.65625 L 11.625 -92.65625 L 12.375 -93.40625 L 12.078125 -93.40625 C 12.273438 -93.613281 12.421875 -93.765625 12.515625 -93.859375 C 12.617188 -93.960938 12.722656 -94.066406 12.828125 -94.171875 L 10.109375 -94.171875 C 10.304688 -94.367188 10.554688 -94.617188 10.859375 -94.921875 C 11.160156 -95.222656 11.460938 -95.472656 11.765625 -95.671875 L 15.390625 -95.671875 C 15.890625 -96.078125 16.390625 -96.453125 16.890625 -96.796875 C 17.398438 -97.148438 17.90625 -97.53125 18.40625 -97.9375 L 16.75 -97.9375 L 17.953125 -98.6875 L 15.390625 -98.6875 C 15.585938 -98.894531 15.785156 -99.046875 15.984375 -99.140625 C 16.191406 -99.242188 16.394531 -99.347656 16.59375 -99.453125 L 24.453125 -99.453125 C 25.148438 -99.847656 25.847656 -100.222656 26.546875 -100.578125 C 27.253906 -100.929688 27.960938 -101.304688 28.671875 -101.703125 L 28.21875 -101.703125 C 28.820312 -102.003906 29.425781 -102.28125 30.03125 -102.53125 C 30.632812 -102.789062 31.238281 -103.019531 31.84375 -103.21875 L 34.703125 -103.21875 C 35.003906 -103.414062 35.332031 -103.566406 35.6875 -103.671875 C 36.039062 -103.773438 36.421875 -103.875 36.828125 -103.96875 L 32.296875 -103.96875 C 35.316406 -105.082031 38.535156 -105.835938 41.953125 -106.234375 L 46.03125 -106.234375 C 49.945312 -106.835938 54.070312 -107.140625 58.40625 -107.140625 C 62.625 -107.140625 66.695312 -106.835938 70.625 -106.234375 L 66.703125 -106.234375 C 70.023438 -105.835938 73.34375 -105.082031 76.65625 -103.96875 L 81.1875 -103.96875 C 81.59375 -103.875 81.96875 -103.773438 82.3125 -103.671875 C 82.664062 -103.566406 83.046875 -103.414062 83.453125 -103.21875 L 80.578125 -103.21875 C 82.085938 -102.71875 83.347656 -102.210938 84.359375 -101.703125 L 84.8125 -101.703125 C 85.613281 -101.304688 86.363281 -100.929688 87.0625 -100.578125 C 87.769531 -100.222656 88.476562 -99.847656 89.1875 -99.453125 L 81.484375 -99.453125 C 81.691406 -99.347656 81.894531 -99.242188 82.09375 -99.140625 C 82.289062 -99.046875 82.492188 -98.894531 82.703125 -98.6875 L 85.265625 -98.6875 C 85.460938 -98.59375 85.660156 -98.492188 85.859375 -98.390625 C 86.066406 -98.285156 86.21875 -98.132812 86.3125 -97.9375 L 87.984375 -97.9375 L 91 -95.671875 L 87.21875 -95.671875 L 89.03125 -94.171875 L 91.75 -94.171875 L 92.65625 -93.40625 L 92.8125 -93.40625 L 93.5625 -92.65625 L 95.078125 -92.65625 L 95.828125 -91.90625 L 97.1875 -91.90625 C 97.582031 -91.5 97.984375 -91.019531 98.390625 -90.46875 C 98.796875 -89.914062 99.195312 -89.390625 99.59375 -88.890625 L 100.65625 -88.890625 C 100.957031 -88.484375 101.234375 -88.101562 101.484375 -87.75 C 101.734375 -87.394531 101.957031 -87.019531 102.15625 -86.625 L 102.609375 -86.625 C 102.816406 -86.21875 103.019531 -85.835938 103.21875 -85.484375 C 103.414062 -85.128906 103.617188 -84.753906 103.828125 -84.359375 L 103.515625 -84.359375 C 103.722656 -83.953125 103.925781 -83.570312 104.125 -83.21875 C 104.320312 -82.875 104.472656 -82.5 104.578125 -82.09375 L 103.828125 -82.09375 L 104.28125 -80.578125 L 105.9375 -80.578125 L 106.390625 -79.078125 L 103.0625 -79.078125 C 103.0625 -78.972656 103.085938 -78.867188 103.140625 -78.765625 C 103.191406 -78.671875 103.21875 -78.523438 103.21875 -78.328125 L 113.328125 -78.328125 C 113.328125 -77.921875 113.425781 -77.414062 113.625 -76.8125 L 99.90625 -76.8125 L 100.359375 -73.796875 L 109.109375 -73.796875 L 109.25 -72.28125 Z M 58.25 -76.8125 L 68.96875 -76.8125 C 67.351562 -77.414062 65.539062 -77.71875 63.53125 -77.71875 C 61.519531 -77.71875 59.757812 -77.414062 58.25 -76.8125 Z M 84.359375 -69.5625 C 84.253906 -69.96875 84.148438 -70.320312 84.046875 -70.625 C 83.953125 -70.925781 83.804688 -71.226562 83.609375 -71.53125 L 87.21875 -71.53125 L 86.765625 -72.28125 L 68.65625 -72.28125 C 68.5625 -72.582031 68.410156 -72.859375 68.203125 -73.109375 C 68.003906 -73.359375 67.804688 -73.585938 67.609375 -73.796875 L 33.34375 -73.796875 C 33.25 -73.585938 33.125 -73.359375 32.96875 -73.109375 C 32.820312 -72.859375 32.644531 -72.582031 32.4375 -72.28125 L 63.6875 -72.28125 L 63.375 -71.53125 L 58.546875 -71.53125 C 58.347656 -71.125 58.195312 -70.644531 58.09375 -70.09375 C 58 -69.539062 57.898438 -69.015625 57.796875 -68.515625 L 84.8125 -68.515625 Z M 66.546875 -37.578125 L 47.234375 -37.578125 L 47.6875 -35.3125 L 36.0625 -35.3125 C 36.269531 -34.707031 36.472656 -34.175781 36.671875 -33.71875 C 36.867188 -33.269531 37.117188 -32.796875 37.421875 -32.296875 L 46.03125 -32.296875 C 46.226562 -31.992188 46.425781 -31.71875 46.625 -31.46875 C 46.832031 -31.21875 47.035156 -30.988281 47.234375 -30.78125 L 46.9375 -30.78125 L 47.6875 -30.03125 L 50.25 -30.03125 C 50.445312 -29.925781 50.644531 -29.796875 50.84375 -29.640625 C 51.050781 -29.492188 51.253906 -29.375 51.453125 -29.28125 L 53.875 -29.28125 C 55.582031 -28.375 57.644531 -27.921875 60.0625 -27.921875 C 62.476562 -27.921875 64.488281 -28.375 66.09375 -29.28125 L 61.109375 -29.28125 L 62.328125 -30.03125 L 63.234375 -30.03125 L 64.140625 -30.78125 L 60.21875 -30.78125 C 60.414062 -30.988281 60.640625 -31.21875 60.890625 -31.46875 C 61.140625 -31.71875 61.316406 -31.992188 61.421875 -32.296875 L 63.078125 -32.296875 C 63.679688 -33.203125 64.1875 -34.207031 64.59375 -35.3125 L 65.640625 -35.3125 L 65.953125 -36.0625 C 66.148438 -36.664062 66.347656 -37.171875 66.546875 -37.578125 Z M 66.546875 -37.578125 "/></g></g></g><g fill="#171716" fill-opacity="1"><g transform="translate(75.982726, 113.312607)"><g><path d="M 103.671875 -62.46875 L 103.21875 -60.21875 L 128.125 -60.21875 L 127.8125 -58.703125 L 104.875 -58.703125 L 104.734375 -57.953125 L 114.234375 -57.953125 L 113.78125 -54.9375 L 116.953125 -54.9375 L 116.65625 -52.671875 L 118.46875 -52.671875 L 118.015625 -50.40625 L 118.15625 -50.40625 L 117.859375 -48.140625 L 118.46875 -48.140625 L 118.46875 -47.390625 L 118.15625 -47.390625 L 117.703125 -44.359375 L 117.25 -44.359375 L 116.796875 -41.34375 L 116.5 -38.328125 L 119.359375 -38.328125 L 119.21875 -37.578125 L 117.5625 -37.578125 L 117.5625 -36.828125 L 120.578125 -36.828125 L 120.578125 -36.0625 L 115.75 -36.0625 L 115.59375 -35.3125 L 113.9375 -35.3125 L 113.625 -33.046875 L 118.609375 -33.046875 L 118.15625 -30.03125 L 123.890625 -30.03125 L 123.59375 -27.765625 L 119.0625 -27.765625 L 118.921875 -27.015625 L 116.65625 -27.015625 L 116.203125 -24 L 117.40625 -24 L 117.25 -22.484375 L 118.609375 -22.484375 L 118.3125 -20.21875 L 116.046875 -20.21875 L 115.75 -17.953125 L 110.765625 -17.953125 L 110.609375 -16.453125 L 115.75 -16.453125 L 115.296875 -13.4375 L 111.96875 -13.4375 L 111.671875 -10.40625 L 114.6875 -10.40625 L 114.390625 -8.15625 L 102.765625 -8.15625 L 102.46875 -6.640625 L 106.84375 -6.640625 L 106.6875 -5.734375 L 106.6875 -5.125 L 110.765625 -5.125 C 110.660156 -4.925781 110.582031 -4.675781 110.53125 -4.375 C 110.488281 -4.070312 110.363281 -3.820312 110.15625 -3.625 L 108.5 -3.625 C 108 -2.71875 107.347656 -1.960938 106.546875 -1.359375 L 107.890625 -1.359375 C 107.296875 -0.953125 106.847656 -0.703125 106.546875 -0.609375 L 107.75 -0.609375 C 106.945312 -0.203125 105.941406 0 104.734375 0 L 83.15625 0 C 82.550781 0 82.019531 -0.0703125 81.5625 -0.21875 C 81.113281 -0.375 80.6875 -0.503906 80.28125 -0.609375 L 79.078125 -0.609375 C 78.773438 -0.703125 78.519531 -0.820312 78.3125 -0.96875 C 78.113281 -1.125 77.914062 -1.253906 77.71875 -1.359375 L 76.515625 -1.359375 C 76.109375 -1.765625 75.753906 -2.164062 75.453125 -2.5625 C 75.148438 -2.96875 74.898438 -3.320312 74.703125 -3.625 L 76.359375 -3.625 C 76.253906 -3.71875 76.203125 -3.867188 76.203125 -4.078125 L 75.75 -5.125 L 71.6875 -5.125 L 71.078125 -6.640625 L 66.703125 -6.640625 L 66.09375 -8.15625 L 77.71875 -8.15625 L 76.8125 -10.40625 L 73.640625 -10.40625 L 72.4375 -13.4375 L 75.75 -13.4375 L 74.546875 -16.453125 L 69.421875 -16.453125 L 68.8125 -17.953125 L 73.640625 -17.953125 L 72.734375 -20.21875 L 75 -20.21875 L 74.09375 -22.484375 L 72.734375 -22.484375 L 72.140625 -24 L 70.921875 -24 L 69.71875 -27.015625 L 71.984375 -27.015625 L 71.6875 -27.765625 L 76.203125 -27.765625 L 75.296875 -30.03125 L 69.5625 -30.03125 L 68.359375 -33.046875 L 63.375 -33.046875 L 62.625 -35.015625 L 61.875 -33.046875 L 61.265625 -33.046875 L 60.0625 -30.03125 L 69.421875 -30.03125 L 68.515625 -27.765625 L 61.109375 -27.765625 L 60.8125 -27.015625 L 62.171875 -27.015625 L 60.96875 -24 L 63.6875 -24 L 63.078125 -22.484375 L 55.53125 -22.484375 L 54.625 -20.21875 L 58.703125 -20.21875 L 57.796875 -17.953125 L 52.8125 -17.953125 L 52.21875 -16.453125 L 54.625 -16.453125 L 53.421875 -13.4375 L 53.578125 -13.4375 L 52.359375 -10.40625 L 42.40625 -10.40625 L 41.5 -8.15625 L 57.34375 -8.15625 L 56.734375 -6.640625 L 53.421875 -6.640625 L 52.8125 -5.125 L 52.515625 -5.125 L 52.0625 -4.078125 L 51.765625 -3.625 L 47.078125 -3.625 C 46.878906 -3.320312 46.65625 -2.96875 46.40625 -2.5625 C 46.15625 -2.164062 45.773438 -1.765625 45.265625 -1.359375 L 46.171875 -1.359375 C 45.867188 -1.054688 45.46875 -0.804688 44.96875 -0.609375 L 49.046875 -0.609375 C 48.640625 -0.503906 48.1875 -0.375 47.6875 -0.21875 C 47.1875 -0.0703125 46.632812 0 46.03125 0 L 24.453125 0 C 23.242188 0 22.234375 -0.203125 21.421875 -0.609375 L 17.5 -0.609375 C 17.195312 -0.703125 16.742188 -0.953125 16.140625 -1.359375 L 15.09375 -1.359375 C 14.1875 -2.066406 13.53125 -2.820312 13.125 -3.625 L 17.953125 -3.625 C 17.859375 -3.820312 17.757812 -4.070312 17.65625 -4.375 C 17.550781 -4.675781 17.453125 -4.925781 17.359375 -5.125 L 17.8125 -5.125 L 17.65625 -5.734375 L 17.5 -6.640625 L 20.828125 -6.640625 L 20.515625 -8.15625 L 4.828125 -8.15625 L 4.53125 -10.40625 L 14.34375 -10.40625 L 14.03125 -13.4375 L 13.890625 -13.4375 L 13.4375 -16.453125 L 11.015625 -16.453125 L 10.859375 -17.953125 L 15.6875 -17.953125 L 15.390625 -20.21875 L 11.46875 -20.21875 L 11.171875 -22.484375 L 18.71875 -22.484375 L 18.40625 -24 L 15.6875 -24 L 15.234375 -27.015625 L 13.890625 -27.015625 L 13.734375 -27.765625 L 21.125 -27.765625 L 20.828125 -30.03125 L 11.46875 -30.03125 L 11.015625 -33.046875 L 11.625 -33.046875 L 11.171875 -35.3125 L 12.828125 -35.3125 L 12.828125 -36.0625 L 17.65625 -36.0625 L 17.5 -36.828125 L 14.34375 -36.828125 L 14.1875 -37.578125 L 15.84375 -37.578125 L 15.84375 -38.328125 L 12.828125 -38.328125 L 12.671875 -39.84375 L 12.53125 -39.84375 L 12.375 -41.34375 L 11.921875 -44.359375 L 12.375 -44.359375 L 11.921875 -47.390625 L 12.21875 -47.390625 L 12.078125 -48.140625 L 11.46875 -48.140625 L 11.171875 -50.40625 L 11.015625 -50.40625 L 10.71875 -52.671875 L 8.90625 -52.671875 L 8.609375 -54.9375 L 5.4375 -54.9375 L 4.984375 -57.953125 L -4.53125 -57.953125 L -4.53125 -58.703125 L 18.40625 -58.703125 L 18.265625 -60.21875 L 9.203125 -60.21875 L 8.90625 -62.46875 L -0.609375 -62.46875 L -0.75 -63.984375 L 12.984375 -63.984375 L 12.53125 -67 L 8.90625 -67 L 8.90625 -67.75 L 11.015625 -67.75 L 10.859375 -68.515625 L 14.03125 -68.515625 L 13.734375 -70.78125 L 8.609375 -70.78125 L 8.453125 -71.53125 L -3.3125 -71.53125 L -3.625 -74.546875 L 9.5 -74.546875 L 9.046875 -77.5625 L 5.734375 -77.5625 L 5.578125 -79.078125 L 6.9375 -79.078125 L 6.640625 -81.34375 L 7.09375 -81.34375 L 6.9375 -82.09375 L 2.265625 -82.09375 L 2.109375 -83.609375 L 5.28125 -83.609375 L 4.984375 -85.859375 L 5.28125 -85.859375 L 4.984375 -88.125 L 7.546875 -88.125 L 7.25 -89.640625 L -0.90625 -89.640625 L -1.0625 -91.140625 L 5.4375 -91.140625 L 5.28125 -92.65625 L 1.515625 -92.65625 L 1.359375 -94.171875 L 6.03125 -94.171875 L 5.734375 -96.421875 L 4.21875 -96.421875 L 3.765625 -99.453125 L 5.4375 -99.453125 L 5.28125 -100.203125 L 4.984375 -101.859375 L 4.984375 -102.46875 L 2.71875 -102.46875 C 2.914062 -104.582031 4.019531 -105.640625 6.03125 -105.640625 L 34.109375 -105.640625 C 37.222656 -105.640625 38.984375 -104.582031 39.390625 -102.46875 L 41.65625 -102.46875 C 41.75 -102.257812 41.796875 -101.957031 41.796875 -101.5625 L 41.953125 -100.203125 L 42.109375 -99.453125 L 40.59375 -99.453125 L 40.890625 -96.421875 L 42.40625 -96.421875 L 42.703125 -94.171875 L 37.875 -94.171875 L 38.171875 -92.65625 L 41.796875 -92.65625 L 41.953125 -91.140625 L 35.46875 -91.140625 L 35.609375 -89.640625 L 43.765625 -89.640625 L 44.0625 -88.125 L 41.5 -88.125 L 41.65625 -85.859375 L 41.5 -85.859375 L 41.65625 -83.609375 L 38.328125 -83.609375 L 38.625 -82.09375 L 43.15625 -82.09375 L 43.3125 -81.34375 L 42.859375 -81.34375 L 43.15625 -79.078125 L 41.796875 -79.078125 L 41.953125 -77.5625 L 45.265625 -77.5625 L 45.71875 -74.546875 L 32.4375 -74.546875 L 32.75 -71.53125 L 44.515625 -71.53125 L 44.671875 -70.78125 L 49.796875 -70.78125 L 50.09375 -68.515625 L 46.9375 -68.515625 L 46.9375 -67.75 L 44.8125 -67.75 L 44.96875 -67 L 48.140625 -67 L 48.4375 -67.75 L 49.953125 -67.75 L 50.25 -68.515625 L 56.59375 -68.515625 L 57.34375 -70.78125 L 50.40625 -70.78125 L 50.546875 -71.53125 L 62.171875 -71.53125 L 63.234375 -74.546875 L 51 -74.546875 L 51.90625 -77.5625 L 50.546875 -77.5625 L 50.546875 -77.875 L 51 -79.078125 L 53.875 -79.078125 C 54.070312 -79.472656 54.296875 -79.875 54.546875 -80.28125 C 54.804688 -80.6875 55.132812 -81.039062 55.53125 -81.34375 L 54.625 -81.34375 C 55.125 -81.738281 55.675781 -81.988281 56.28125 -82.09375 L 57.640625 -82.09375 C 57.941406 -82.195312 58.394531 -82.25 59 -82.25 L 74.390625 -82.25 C 74.992188 -82.25 75.398438 -82.195312 75.609375 -82.09375 L 74.25 -82.09375 C 74.644531 -81.988281 74.96875 -81.882812 75.21875 -81.78125 C 75.476562 -81.6875 75.707031 -81.539062 75.90625 -81.34375 L 76.8125 -81.34375 C 77.3125 -81.039062 77.6875 -80.6875 77.9375 -80.28125 C 78.195312 -79.875 78.375 -79.472656 78.46875 -79.078125 L 75.75 -79.078125 C 76.050781 -78.671875 76.203125 -78.269531 76.203125 -77.875 L 76.359375 -77.5625 L 77.875 -77.5625 L 78.765625 -74.546875 L 84.65625 -74.546875 L 85.109375 -77.5625 L 84.203125 -77.5625 L 84.359375 -79.078125 L 91.453125 -79.078125 L 91.59375 -81.34375 L 84.953125 -81.34375 L 85.109375 -82.09375 L 83.90625 -82.09375 L 84.203125 -83.609375 L 86.765625 -83.609375 L 87.078125 -85.859375 L 86.171875 -85.859375 L 86.46875 -88.125 L 88.578125 -88.125 L 88.734375 -89.640625 L 79.53125 -89.640625 L 79.671875 -91.140625 L 82.390625 -91.140625 L 82.546875 -92.65625 L 87.671875 -92.65625 L 87.828125 -94.171875 L 87.671875 -94.171875 L 87.984375 -96.421875 L 88.28125 -99.453125 L 85.265625 -99.453125 L 85.40625 -100.203125 L 89.03125 -100.203125 L 89.34375 -101.5625 L 89.34375 -102.46875 L 92.203125 -102.46875 C 92.609375 -104.582031 94.367188 -105.640625 97.484375 -105.640625 L 125.546875 -105.640625 C 126.359375 -105.640625 127.085938 -105.335938 127.734375 -104.734375 C 128.390625 -104.128906 128.769531 -103.375 128.875 -102.46875 L 126.15625 -102.46875 L 126.15625 -101.859375 L 125.859375 -100.203125 L 122.078125 -100.203125 L 121.9375 -99.453125 L 125.09375 -99.453125 L 124.65625 -96.421875 L 124.34375 -94.171875 L 124.5 -94.171875 L 124.203125 -92.65625 L 119.0625 -92.65625 L 118.921875 -91.140625 L 116.203125 -91.140625 L 115.890625 -89.640625 L 125.25 -89.640625 L 125.09375 -88.125 L 122.984375 -88.125 L 122.6875 -85.859375 L 123.4375 -85.859375 L 123.140625 -83.609375 L 120.578125 -83.609375 L 120.265625 -82.09375 L 121.484375 -82.09375 L 121.328125 -81.34375 L 127.96875 -81.34375 L 127.671875 -79.078125 L 120.71875 -79.078125 L 120.421875 -77.5625 L 121.328125 -77.5625 L 120.875 -74.546875 L 115.4375 -74.546875 L 114.984375 -71.53125 L 121.625 -71.53125 L 121.484375 -70.78125 L 113.78125 -70.78125 L 113.484375 -68.515625 L 120.578125 -68.515625 L 120.578125 -67.75 L 120.125 -67.75 L 119.96875 -67 L 120.421875 -67 L 119.96875 -63.984375 L 122.390625 -63.984375 L 122.078125 -62.46875 Z M 85.5625 -71.53125 L 80.4375 -71.53125 L 80.578125 -70.78125 L 85.40625 -70.78125 Z M 81.9375 -68.515625 L 82.25 -67.75 L 80.734375 -67.75 L 81.03125 -67 L 82.09375 -63.984375 L 65.796875 -63.984375 L 66.25 -62.46875 L 86.3125 -62.46875 L 86.46875 -63.984375 L 84.0625 -63.984375 L 84.5 -67 L 84.0625 -67 L 84.203125 -67.75 L 84.5 -67.75 L 84.65625 -68.515625 Z M 54.484375 -60.21875 L 54.03125 -60.21875 L 54.171875 -59 Z M 92.203125 -59.15625 L 92.359375 -60.21875 L 91.75 -60.21875 Z M 92.203125 -59.15625 "/></g></g></g><g fill="#171716" fill-opacity="1"><g transform="translate(102.633701, 146.790388)"><g><path d="M 8.125 0.40625 C 7.050781 0.40625 6.007812 0.285156 5 0.046875 C 3.988281 -0.191406 3.078125 -0.519531 2.265625 -0.9375 C 1.460938 -1.363281 0.820312 -1.84375 0.34375 -2.375 L 1.765625 -4.453125 C 2.160156 -3.972656 2.703125 -3.539062 3.390625 -3.15625 C 4.085938 -2.78125 4.859375 -2.488281 5.703125 -2.28125 C 6.554688 -2.070312 7.421875 -1.96875 8.296875 -1.96875 C 9.335938 -1.96875 10.171875 -2.101562 10.796875 -2.375 C 11.421875 -2.65625 11.734375 -3.023438 11.734375 -3.484375 C 11.734375 -3.859375 11.492188 -4.164062 11.015625 -4.40625 C 10.535156 -4.644531 9.757812 -4.828125 8.6875 -4.953125 L 6.0625 -5.3125 C 4.257812 -5.519531 2.945312 -5.898438 2.125 -6.453125 C 1.300781 -7.015625 0.890625 -7.8125 0.890625 -8.84375 C 0.898438 -9.695312 1.191406 -10.421875 1.765625 -11.015625 C 2.335938 -11.609375 3.132812 -12.066406 4.15625 -12.390625 C 5.1875 -12.710938 6.375 -12.875 7.71875 -12.875 C 9.0625 -12.875 10.304688 -12.6875 11.453125 -12.3125 C 12.597656 -11.945312 13.507812 -11.457031 14.1875 -10.84375 L 12.984375 -8.828125 C 12.398438 -9.367188 11.632812 -9.800781 10.6875 -10.125 C 9.75 -10.445312 8.765625 -10.609375 7.734375 -10.609375 C 6.742188 -10.597656 5.929688 -10.457031 5.296875 -10.1875 C 4.660156 -9.914062 4.34375 -9.550781 4.34375 -9.09375 C 4.332031 -8.757812 4.53125 -8.488281 4.9375 -8.28125 C 5.34375 -8.082031 5.992188 -7.929688 6.890625 -7.828125 L 9.5 -7.5 C 11.476562 -7.269531 12.914062 -6.859375 13.8125 -6.265625 C 14.71875 -5.679688 15.171875 -4.851562 15.171875 -3.78125 C 15.179688 -2.957031 14.894531 -2.226562 14.3125 -1.59375 C 13.726562 -0.957031 12.90625 -0.460938 11.84375 -0.109375 C 10.789062 0.234375 9.550781 0.40625 8.125 0.40625 Z M 8.125 0.40625 "/></g></g></g><g fill="#171716" fill-opacity="1"><g transform="translate(124.729405, 146.790388)"><g><path d="M 0.875 0 L 0.875 -12.46875 L 5.171875 -12.46875 L 12.984375 -3.375 L 13 -3.375 L 13 -12.46875 L 16.359375 -12.46875 L 16.359375 0 L 12.0625 0 L 4.234375 -9.15625 L 4.21875 -9.15625 L 4.21875 0 Z M 0.875 0 "/></g></g></g><g fill="#171716" fill-opacity="1"><g transform="translate(148.542306, 146.790388)"><g><path d="M 0.875 0 L 0.875 -12.46875 L 13.6875 -12.46875 L 13.6875 -10.171875 L 4.296875 -10.171875 L 4.296875 -7.390625 L 12.984375 -7.390625 L 12.984375 -5.375 L 4.296875 -5.375 L 4.296875 -2.296875 L 13.859375 -2.296875 L 13.859375 0 Z M 0.875 0 "/></g></g></g><g fill="#171716" fill-opacity="1"><g transform="translate(169.323826, 146.790388)"><g><path d="M 0.03125 0 L 6.40625 -12.46875 L 10.484375 -12.46875 L 16.75 0 L 13.078125 0 L 11.890625 -2.453125 L 4.890625 -2.453125 L 3.703125 0 Z M 5.671875 -4.578125 L 11.109375 -4.578125 L 8.421875 -10.1875 L 8.390625 -10.1875 Z M 5.671875 -4.578125 "/></g></g></g><g fill="#171716" fill-opacity="1"><g transform="translate(192.698666, 146.790388)"><g><path d="M 0.875 0 L 0.875 -12.46875 L 4.390625 -12.46875 L 4.390625 -7.40625 L 4.4375 -7.40625 L 10.8125 -12.46875 L 15.359375 -12.46875 L 8.859375 -7.328125 L 15.453125 0 L 11.09375 0 L 6.40625 -5.328125 L 4.390625 -3.734375 L 4.390625 0 Z M 0.875 0 "/></g></g></g><g fill="#171716" fill-opacity="1"><g transform="translate(214.724275, 146.790388)"><g><path d="M 0.875 0 L 0.875 -12.46875 L 13.6875 -12.46875 L 13.6875 -10.171875 L 4.296875 -10.171875 L 4.296875 -7.390625 L 12.984375 -7.390625 L 12.984375 -5.375 L 4.296875 -5.375 L 4.296875 -2.296875 L 13.859375 -2.296875 L 13.859375 0 Z M 0.875 0 "/></g></g></g><g fill="#171716" fill-opacity="1"><g transform="translate(235.505795, 146.790388)"><g><path d="M 14.21875 0.34375 C 13.6875 0.34375 13.226562 0.25 12.84375 0.0625 C 12.46875 -0.113281 12.144531 -0.351562 11.875 -0.65625 C 11.601562 -0.957031 11.367188 -1.269531 11.171875 -1.59375 L 10.328125 -3.21875 C 9.835938 -4.0625 9.140625 -4.484375 8.234375 -4.484375 L 4.390625 -4.484375 L 4.390625 0 L 0.875 0 L 0.875 -12.46875 L 10.890625 -12.46875 C 12.453125 -12.46875 13.675781 -12.128906 14.5625 -11.453125 C 15.457031 -10.773438 15.90625 -9.835938 15.90625 -8.640625 C 15.90625 -7.703125 15.578125 -6.921875 14.921875 -6.296875 C 14.273438 -5.671875 13.382812 -5.269531 12.25 -5.09375 L 12.25 -5.078125 C 12.5 -4.960938 12.71875 -4.800781 12.90625 -4.59375 C 13.101562 -4.382812 13.28125 -4.140625 13.4375 -3.859375 L 14.3125 -2.328125 C 14.425781 -2.140625 14.554688 -1.976562 14.703125 -1.84375 C 14.859375 -1.71875 15.0625 -1.65625 15.3125 -1.65625 C 15.46875 -1.65625 15.640625 -1.707031 15.828125 -1.8125 C 16.015625 -1.914062 16.171875 -2.046875 16.296875 -2.203125 L 17.03125 -0.703125 C 16.71875 -0.398438 16.300781 -0.148438 15.78125 0.046875 C 15.269531 0.242188 14.75 0.34375 14.21875 0.34375 Z M 4.390625 -6.609375 L 9.9375 -6.609375 C 10.6875 -6.609375 11.273438 -6.773438 11.703125 -7.109375 C 12.140625 -7.441406 12.359375 -7.878906 12.359375 -8.421875 C 12.359375 -8.992188 12.140625 -9.441406 11.703125 -9.765625 C 11.273438 -10.097656 10.6875 -10.265625 9.9375 -10.265625 L 4.390625 -10.265625 Z M 4.390625 -6.609375 "/></g></g></g><g fill="#171716" fill-opacity="1"><g transform="translate(259.108411, 146.790388)"><g><path d="M 8.125 0.40625 C 7.050781 0.40625 6.007812 0.285156 5 0.046875 C 3.988281 -0.191406 3.078125 -0.519531 2.265625 -0.9375 C 1.460938 -1.363281 0.820312 -1.84375 0.34375 -2.375 L 1.765625 -4.453125 C 2.160156 -3.972656 2.703125 -3.539062 3.390625 -3.15625 C 4.085938 -2.78125 4.859375 -2.488281 5.703125 -2.28125 C 6.554688 -2.070312 7.421875 -1.96875 8.296875 -1.96875 C 9.335938 -1.96875 10.171875 -2.101562 10.796875 -2.375 C 11.421875 -2.65625 11.734375 -3.023438 11.734375 -3.484375 C 11.734375 -3.859375 11.492188 -4.164062 11.015625 -4.40625 C 10.535156 -4.644531 9.757812 -4.828125 8.6875 -4.953125 L 6.0625 -5.3125 C 4.257812 -5.519531 2.945312 -5.898438 2.125 -6.453125 C 1.300781 -7.015625 0.890625 -7.8125 0.890625 -8.84375 C 0.898438 -9.695312 1.191406 -10.421875 1.765625 -11.015625 C 2.335938 -11.609375 3.132812 -12.066406 4.15625 -12.390625 C 5.1875 -12.710938 6.375 -12.875 7.71875 -12.875 C 9.0625 -12.875 10.304688 -12.6875 11.453125 -12.3125 C 12.597656 -11.945312 13.507812 -11.457031 14.1875 -10.84375 L 12.984375 -8.828125 C 12.398438 -9.367188 11.632812 -9.800781 10.6875 -10.125 C 9.75 -10.445312 8.765625 -10.609375 7.734375 -10.609375 C 6.742188 -10.597656 5.929688 -10.457031 5.296875 -10.1875 C 4.660156 -9.914062 4.34375 -9.550781 4.34375 -9.09375 C 4.332031 -8.757812 4.53125 -8.488281 4.9375 -8.28125 C 5.34375 -8.082031 5.992188 -7.929688 6.890625 -7.828125 L 9.5 -7.5 C 11.476562 -7.269531 12.914062 -6.859375 13.8125 -6.265625 C 14.71875 -5.679688 15.171875 -4.851562 15.171875 -3.78125 C 15.179688 -2.957031 14.894531 -2.226562 14.3125 -1.59375 C 13.726562 -0.957031 12.90625 -0.460938 11.84375 -0.109375 C 10.789062 0.234375 9.550781 0.40625 8.125 0.40625 Z M 8.125 0.40625 "/></g></g></g></svg>