<svg xmlns="http://www.w3.org/2000/svg" xmlns:xlink="http://www.w3.org/1999/xlink" width="500" zoomAndPan="magnify" viewBox="0 0 375 374.999991" height="500" preserveAspectRatio="xMidYMid meet" version="1.0"><path fill="#ffffff" d="M 297.65625 76.71875 C 294.082031 73.109375 290.339844 69.6875 286.429688 66.453125 C 282.515625 63.214844 278.453125 60.183594 274.238281 57.347656 C 270.023438 54.515625 265.679688 51.898438 261.207031 49.496094 C 256.734375 47.09375 252.152344 44.921875 247.460938 42.972656 C 242.769531 41.027344 237.996094 39.316406 233.136719 37.84375 C 228.277344 36.371094 223.359375 35.144531 218.375 34.160156 C 213.394531 33.175781 208.378906 32.441406 203.324219 31.953125 C 198.269531 31.46875 193.203125 31.234375 188.125 31.25 C 102.8125 31.25 33.28125 100.78125 33.28125 186.09375 C 33.28125 213.4375 40.46875 240 53.90625 263.4375 L 32.03125 343.75 L 114.0625 322.1875 C 136.71875 334.53125 162.1875 341.09375 188.125 341.09375 C 273.4375 341.09375 342.96875 271.5625 342.96875 186.25 C 342.96875 144.84375 326.875 105.9375 297.65625 76.71875 M 188.125 314.84375 C 165 314.84375 142.34375 308.59375 122.5 296.875 L 117.8125 294.0625 L 69.0625 306.875 L 82.03125 259.375 L 78.90625 254.53125 C 75.710938 249.425781 72.882812 244.125 70.429688 238.628906 C 67.972656 233.128906 65.914062 227.484375 64.25 221.699219 C 62.585938 215.910156 61.332031 210.035156 60.488281 204.070312 C 59.644531 198.109375 59.222656 192.117188 59.21875 186.09375 C 59.21875 115.15625 117.03125 57.34375 187.96875 57.34375 C 222.34375 57.34375 254.6875 70.78125 278.90625 95.15625 C 281.898438 98.132812 284.734375 101.25 287.417969 104.507812 C 290.097656 107.765625 292.613281 111.148438 294.960938 114.652344 C 297.308594 118.160156 299.476562 121.773438 301.46875 125.496094 C 303.457031 129.214844 305.257812 133.027344 306.867188 136.925781 C 308.480469 140.828125 309.898438 144.796875 311.117188 148.835938 C 312.335938 152.875 313.351562 156.964844 314.164062 161.105469 C 314.976562 165.246094 315.585938 169.417969 315.984375 173.621094 C 316.386719 177.820312 316.578125 182.03125 316.5625 186.25 C 316.875 257.1875 259.0625 314.84375 188.125 314.84375 M 258.75 218.59375 C 254.84375 216.71875 235.78125 207.34375 232.34375 205.9375 C 228.75 204.6875 226.25 204.0625 223.59375 207.8125 C 220.9375 211.71875 213.59375 220.46875 211.40625 222.96875 C 209.21875 225.625 206.875 225.9375 202.96875 223.90625 C 199.0625 222.03125 186.5625 217.8125 171.875 204.6875 C 160.3125 194.375 152.65625 181.71875 150.3125 177.8125 C 148.125 173.90625 150 171.875 152.03125 169.84375 C 153.75 168.125 155.9375 165.3125 157.8125 163.125 C 159.6875 160.9375 160.46875 159.21875 161.71875 156.71875 C 162.96875 154.0625 162.34375 151.875 161.40625 150 C 160.46875 148.125 152.65625 129.0625 149.53125 121.25 C 146.40625 113.75 143.125 114.6875 140.78125 114.53125 L 133.28125 114.53125 C 130.625 114.53125 126.5625 115.46875 122.96875 119.375 C 119.53125 123.28125 109.53125 132.65625 109.53125 151.71875 C 109.53125 170.78125 123.4375 189.21875 125.3125 191.71875 C 127.1875 194.375 152.65625 233.4375 191.40625 250.15625 C 200.625 254.21875 207.8125 256.5625 213.4375 258.28125 C 222.65625 261.25 231.09375 260.78125 237.8125 259.84375 C 245.3125 258.75 260.78125 250.46875 263.90625 241.40625 C 267.1875 232.34375 267.1875 224.6875 266.09375 222.96875 C 265 221.25 262.65625 220.46875 258.75 218.59375 " fill-opacity="1" fill-rule="nonzero"/></svg>